<svg width="81" height="79" viewBox="0 0 81 79" fill="none" xmlns="http://www.w3.org/2000/svg">
<rect width="81" height="79" rx="39.5" fill="#0F0F10"/>
<path d="M19.432 45.598H19.404C16.394 45.598 14.826 43.512 14.826 39.984V39.844C14.826 36.274 16.436 34.16 19.404 34.16H19.432C21.938 34.16 23.464 35.49 23.758 38.234L23.786 38.556H22.442L22.4 38.248C22.148 36.358 21.112 35.434 19.432 35.434H19.404C17.332 35.434 16.184 37.072 16.184 39.844V39.984C16.184 42.714 17.304 44.324 19.404 44.324H19.432C21.126 44.324 22.19 43.4 22.414 41.51L22.456 41.202H23.8L23.758 41.552C23.478 44.282 21.924 45.598 19.432 45.598ZM28.1813 45.598H28.1533C25.8293 45.598 24.4433 44.002 24.4433 41.3V41.16C24.4433 38.556 25.8293 37.002 28.1533 37.002H28.1813C30.5053 37.002 31.8913 38.556 31.8913 41.16V41.3C31.8913 44.002 30.5053 45.598 28.1813 45.598ZM28.1533 44.408H28.1813C29.6793 44.408 30.5753 43.26 30.5753 41.3V41.174C30.5753 39.312 29.6793 38.206 28.1813 38.206H28.1533C26.6413 38.206 25.7593 39.312 25.7593 41.174V41.3C25.7593 43.26 26.6413 44.408 28.1533 44.408ZM34.105 45.5H32.831V37.114H34.105V37.184C34.105 37.8 34.063 38.374 33.839 39.676H33.923C34.357 37.828 35.379 37.002 36.863 37.002H36.891C38.683 37.002 39.789 38.192 39.789 40.194V45.5H38.515V40.572C38.515 39.13 37.675 38.304 36.401 38.304H36.387C34.889 38.304 34.105 39.452 34.105 41.454V45.5ZM41.55 38.276H40.318V37.114H41.55V34.93H42.824V37.114H45.036V38.276H42.824V42.966C42.824 43.918 43.3 44.394 44.196 44.394C44.49 44.394 44.84 44.338 45.106 44.268V45.444C44.728 45.556 44.28 45.612 43.874 45.612C42.334 45.612 41.55 44.828 41.55 43.246V38.276ZM49.2135 37.002H49.2415C51.3695 37.002 52.5595 38.038 52.5595 39.886V45.5H51.2715V45.402C51.2715 44.772 51.3275 44.268 51.5375 42.84H51.4535C50.9775 44.632 49.8015 45.612 48.0935 45.612H48.0655C46.5115 45.612 45.4475 44.772 45.4475 43.316V43.246C45.4475 42.028 46.1615 41.23 47.9815 40.992L49.6755 40.768C50.8235 40.6 51.2715 40.278 51.2715 39.662V39.606C51.2715 38.766 50.4595 38.206 49.2275 38.206H49.1995C47.8415 38.206 47.1555 38.794 47.0015 39.788L46.9595 40.012H45.6995L45.7275 39.788C45.9655 37.926 47.1415 37.002 49.2135 37.002ZM48.4015 44.338H48.4155C50.2215 44.338 51.2295 43.106 51.2715 41.23C50.9775 41.468 50.5015 41.608 49.7455 41.706L48.4155 41.902C47.1975 42.07 46.7495 42.476 46.7495 43.12V43.176C46.7495 43.932 47.3515 44.338 48.4015 44.338ZM57.1281 45.612H57.1001C54.7481 45.612 53.3621 44.002 53.3621 41.3V41.16C53.3621 38.556 54.7481 37.002 57.1001 37.002H57.1281C59.1161 37.002 60.2921 38.122 60.5161 39.802L60.5581 40.068H59.3261L59.2841 39.858C59.1161 38.892 58.3741 38.206 57.1141 38.206H57.0861C55.5741 38.206 54.6781 39.312 54.6781 41.174V41.3C54.6781 43.26 55.5741 44.408 57.1001 44.408H57.1281C58.3601 44.408 59.0881 43.722 59.2841 42.672L59.3261 42.476H60.5581L60.5161 42.728C60.2641 44.478 59.1021 45.612 57.1281 45.612ZM61.9813 38.276H60.7493V37.114H61.9813V34.93H63.2553V37.114H65.4673V38.276H63.2553V42.966C63.2553 43.918 63.7313 44.394 64.6273 44.394C64.9213 44.394 65.2713 44.338 65.5373 44.268V45.444C65.1593 45.556 64.7113 45.612 64.3053 45.612C62.7653 45.612 61.9813 44.828 61.9813 43.246V38.276Z" fill="white"/>
</svg>
